<svg version="1.1" id="Layer_1" xmlns="http://www.w3.org/2000/svg" xmlns:xlink="http://www.w3.org/1999/xlink" x="0px" y="0px"
	 width="100%" viewBox="0 0 500 500" enable-background="new 0 0 500 500" xml:space="preserve">
<path fill="#000000" opacity="1.000000" stroke="none" 
	d="
M276.000000,501.000000 
	C184.000015,501.000000 92.500046,501.000000 1.000049,501.000000 
	C1.000033,334.333405 1.000033,167.666794 1.000016,1.000139 
	C167.666565,1.000092 334.333130,1.000092 500.999756,1.000046 
	C500.999847,167.666519 500.999847,334.333038 500.999939,500.999786 
	C426.166656,501.000000 351.333344,501.000000 276.000000,501.000000 
M236.434296,353.005188 
	C236.632812,353.018982 236.831329,353.032776 237.133850,353.446442 
	C237.133850,353.446442 237.272079,353.835815 237.088013,354.604797 
	C237.720840,357.068665 238.353668,359.532562 239.001114,362.003021 
	C239.001114,362.003021 238.998016,361.988098 238.133850,361.994934 
	C235.432968,362.341248 231.384750,360.853821 231.103851,365.178375 
	C230.643936,372.259247 230.979431,379.391754 230.979431,386.976501 
	C246.576553,386.976501 261.671967,387.058380 276.761810,386.807098 
	C277.861725,386.788788 279.747803,384.416840 279.851166,383.033295 
	C280.222046,378.069061 279.691162,373.037598 280.058685,368.072845 
	C280.419464,363.199646 278.648865,361.236237 273.839233,362.025482 
	C270.321686,362.602661 268.748901,361.153961 267.627228,357.640991 
	C265.913544,352.273956 263.244354,347.212006 260.872101,341.232788 
	C253.062332,318.563721 245.281250,295.884613 237.345856,273.259613 
	C237.001251,272.277039 235.247696,271.185760 234.135147,271.169128 
	C223.645752,271.012146 213.151474,270.995880 202.663361,271.192322 
	C201.463898,271.214813 199.696381,272.535706 199.211945,273.684540 
	C197.005936,278.916077 195.114502,284.283478 193.200958,289.634583 
	C185.592590,310.910797 177.722092,332.100861 170.606873,353.541229 
	C168.394363,360.208160 166.081146,364.810028 158.143585,363.256836 
	C157.932114,363.215454 157.636780,363.602631 157.434174,363.750732 
	C157.434174,371.381836 157.434174,378.960785 157.434174,386.581635 
	C173.338745,386.581635 188.902023,386.581635 205.831528,386.581635 
	C205.831528,379.481537 205.964951,372.713593 205.686615,365.962646 
	C205.645218,364.958588 203.811752,363.598297 202.548004,363.172424 
	C200.491196,362.479218 198.220398,362.421082 195.577606,362.025787 
	C196.924606,358.795410 197.964447,356.301697 199.593506,353.791870 
	C200.067947,353.186310 200.542389,352.580780 201.744080,351.872559 
	C202.478409,351.869720 203.212723,351.866913 204.274872,352.560364 
	C205.867233,352.318787 207.459610,352.077209 209.736404,351.816528 
	C210.192871,351.817291 210.649323,351.818085 211.204041,352.727295 
	C219.421082,352.771637 227.638138,352.815979 236.434296,353.005188 
M374.925934,349.211853 
	C375.548676,345.352356 374.061279,343.756195 370.023346,343.956299 
	C364.720367,344.219086 359.385345,344.214600 354.081848,343.957886 
	C350.309723,343.775391 349.194305,345.558868 349.016357,348.898682 
	C348.790924,353.130341 348.311005,357.348419 347.933044,361.661377 
	C340.495453,361.661377 333.320007,361.661377 326.045837,361.661377 
	C326.045837,339.162750 326.045837,317.078796 326.487488,294.913849 
	C326.487488,294.913849 326.908600,294.758087 327.817627,294.907349 
	C330.397797,294.907349 332.977966,294.907349 335.689148,294.907349 
	C335.689148,286.623718 335.689148,279.058136 335.689148,271.317688 
	C319.438080,271.317688 303.430328,271.317688 287.251709,271.317688 
	C287.251709,274.094757 287.251709,276.553162 287.126068,279.809052 
	C287.090149,280.884186 287.054230,281.959320 286.295105,283.428497 
	C286.527527,286.266144 286.916351,289.101929 286.950500,291.941956 
	C286.988342,295.087616 288.731842,295.271240 291.709747,294.868500 
	C292.121704,294.828644 292.533630,294.788788 293.496490,294.890533 
	C293.678101,294.836029 293.859680,294.781494 294.672913,294.847717 
	C295.098145,294.898438 295.523407,294.949188 296.085907,295.532104 
	C296.394470,295.702698 296.703033,295.873291 297.128113,296.509552 
	C297.128113,296.509552 297.279266,296.965179 297.097473,297.714905 
	C297.161499,298.477844 297.225555,299.240784 297.162781,300.932800 
	C297.205383,317.609985 297.248016,334.287201 297.104248,351.817291 
	C296.690948,355.062286 296.277649,358.307281 295.831421,361.810944 
	C294.477844,361.894501 293.153229,362.193695 291.896454,362.015259 
	C287.124146,361.337708 285.712372,363.509338 286.070435,367.996185 
	C286.387421,371.968079 286.122925,375.985229 286.141968,379.982269 
	C286.169983,385.857635 287.212555,386.914581 293.066010,386.913147 
	C318.768219,386.906860 344.470490,386.896240 370.172638,386.854126 
	C372.781067,386.849854 375.039551,386.478363 374.968018,382.859100 
	C374.770721,372.874115 374.777893,362.885071 374.852112,352.195160 
	C374.814667,351.481110 374.777222,350.767029 374.925934,349.211853 
M470.919495,104.591743 
	C462.581329,104.393288 454.243683,104.160141 445.904358,104.044098 
	C444.955017,104.030899 443.996552,104.674889 442.102325,105.090103 
	C304.529205,105.090103 166.956116,105.090103 29.398212,105.090103 
	C29.398212,157.318192 29.398212,208.876755 29.398212,260.867645 
	C32.378590,260.867645 35.012650,260.867523 37.646709,260.867645 
	C152.437714,260.872711 267.228729,260.878387 382.019745,260.882446 
	C410.175934,260.883453 438.332275,260.833435 466.488098,260.934326 
	C470.112579,260.947296 472.170807,260.306458 471.896729,256.041901 
	C471.596344,251.368210 471.925690,246.657806 471.828796,241.966537 
	C471.547791,228.361343 470.926514,214.757568 470.934265,201.153519 
	C470.942810,186.130646 471.612488,171.109375 471.786835,156.085007 
	C471.951172,141.926041 471.911896,127.763435 471.801147,113.603691 
	C471.779938,110.896828 471.009369,108.195824 470.919495,104.591743 
M104.745415,294.883698 
	C106.362122,294.883698 107.978821,294.883698 109.608704,294.883698 
	C110.114159,302.425842 110.707550,309.466125 110.896706,316.517273 
	C110.919060,317.350433 108.736801,318.976868 107.557648,318.994781 
	C95.566307,319.176941 83.569450,319.188354 71.579224,318.969360 
	C70.319847,318.946350 68.065025,317.186554 68.017296,316.152008 
	C67.697632,309.223633 67.851143,302.273438 67.851143,295.115936 
	C69.713737,295.011932 71.010574,294.896057 72.308983,294.874390 
	C78.829285,294.765686 78.841629,294.774414 78.871338,288.031708 
	C78.888954,284.034210 78.632515,280.020203 78.916603,276.043396 
	C79.208237,271.961151 77.483749,270.911713 73.665497,270.989929 
	C63.674316,271.194794 53.676071,271.054688 43.680641,271.052826 
	C38.922386,271.051910 34.164135,271.052643 29.403824,271.052643 
	C29.403824,279.354370 29.403824,286.940277 29.403824,295.083679 
	C32.742203,295.083679 35.795795,295.083679 38.373428,295.083679 
	C38.373428,317.670380 38.373428,339.688019 38.373428,362.123169 
	C36.495060,362.123169 35.367340,362.183380 34.247929,362.112457 
	C29.964397,361.841095 26.736952,362.443787 29.022762,368.007782 
	C29.194550,368.425934 28.984095,368.991272 28.993847,369.487335 
	C29.092482,374.504700 29.024057,379.537598 29.470015,384.524292 
	C29.548660,385.403717 31.779957,386.749939 33.029854,386.764160 
	C46.854805,386.921417 60.682625,386.803894 74.508774,386.895569 
	C77.665588,386.916473 79.106682,385.892120 78.918549,382.561859 
	C78.712135,378.908112 78.854729,375.234558 78.849449,371.569611 
	C78.836517,362.585663 78.837257,362.589539 70.099503,362.070831 
	C69.806587,362.053436 69.528412,361.787506 68.617790,361.308014 
	C68.292061,354.182190 67.950508,346.710236 67.608727,339.233276 
	C82.655624,339.233276 96.723106,339.233276 111.431160,339.233276 
	C111.023056,346.991455 110.636055,354.348389 110.235649,361.960144 
	C108.379333,362.049896 107.049652,362.318085 105.783646,362.138184 
	C101.485985,361.527527 99.723091,363.018097 100.068123,367.582733 
	C100.443718,372.551758 100.222870,377.573303 100.112701,382.568665 
	C100.050880,385.371765 100.812386,386.931976 104.012787,386.912750 
	C118.005417,386.828644 131.999084,386.847321 145.991882,386.922852 
	C148.778320,386.937866 149.919403,385.812561 149.857620,383.066742 
	C149.767685,379.070587 149.838684,375.070923 149.829422,371.072754 
	C149.809540,362.491791 149.806290,362.495575 141.152786,362.030365 
	C140.866669,362.014984 140.593628,361.756134 140.130798,361.515167 
	C140.130798,339.528717 140.130798,317.464447 140.130798,294.803467 
	C143.450455,294.803467 146.513153,294.803467 149.589569,294.803467 
	C149.589569,286.628754 149.589569,279.055450 149.589569,271.044189 
	C133.949860,271.044189 118.655197,270.963501 103.365906,271.212585 
	C102.261505,271.230591 100.354378,273.593781 100.261749,274.964020 
	C99.903076,280.269867 100.208305,285.616791 100.102448,290.945160 
	C100.048622,293.654633 100.997772,295.083466 104.745415,294.883698 
M418.499847,386.863037 
	C434.927429,386.543976 451.354309,386.165558 467.783295,385.959106 
	C470.834778,385.920776 471.877258,384.809814 471.850006,381.829163 
	C471.746399,370.504761 471.759705,359.178619 471.833069,347.853790 
	C471.851288,345.047485 470.714417,344.015900 467.948669,344.075134 
	C462.121948,344.199982 456.288055,344.227295 450.462616,344.078735 
	C447.485229,344.002838 446.329163,345.432800 446.074158,348.109558 
	C445.748077,351.532806 445.645264,355.007996 444.924469,358.348236 
	C444.623138,359.744598 443.036255,361.862091 441.938232,361.922852 
	C435.701172,362.267914 429.435150,362.089996 423.233398,362.089996 
	C423.233398,339.352997 423.233398,317.288635 423.233398,294.691986 
	C426.621124,294.691986 429.682037,294.691986 432.667938,294.691986 
	C432.667938,286.569153 432.667938,278.985992 432.667938,271.055359 
	C417.061676,271.055359 401.767151,270.973969 386.477875,271.219452 
	C385.331757,271.237854 383.346405,273.529510 383.251526,274.870575 
	C382.876343,280.173828 383.188812,285.521484 383.065369,290.848480 
	C382.994537,293.904724 384.345734,295.032959 387.272736,294.936249 
	C389.326843,294.868408 391.391022,295.106293 393.033997,295.187164 
	C393.033997,317.915924 393.033997,339.912872 393.033997,362.134979 
	C391.218170,362.134979 390.039062,362.281647 388.908539,362.109406 
	C384.192505,361.390869 382.704315,363.451324 383.054993,368.011627 
	C383.398712,372.481720 383.365631,377.017975 383.038940,381.491669 
	C382.726532,385.770508 384.694489,386.950073 388.521881,386.908936 
	C398.180237,386.805115 407.840393,386.865997 418.499847,386.863037 
z"/>
<path fill="#F76349" opacity="1.000000" stroke="none" 
	d="
M470.584534,105.492126 
	C471.009369,108.195824 471.779938,110.896828 471.801147,113.603691 
	C471.911896,127.763435 471.951172,141.926041 471.786835,156.085007 
	C471.612488,171.109375 470.942810,186.130646 470.934265,201.153519 
	C470.926514,214.757568 471.547791,228.361343 471.828796,241.966537 
	C471.925690,246.657806 471.596344,251.368210 471.896729,256.041901 
	C472.170807,260.306458 470.112579,260.947296 466.488098,260.934326 
	C438.332275,260.833435 410.175934,260.883453 382.019745,260.882446 
	C267.228729,260.878387 152.437714,260.872711 37.646709,260.867645 
	C35.012650,260.867523 32.378590,260.867645 29.398212,260.867645 
	C29.398212,208.876755 29.398212,157.318192 29.398212,105.090103 
	C166.956116,105.090103 304.529205,105.090103 443.038269,105.046173 
	C452.844330,105.165543 461.714447,105.328835 470.584534,105.492126 
M349.198334,232.460281 
	C349.393036,232.733185 349.651794,232.914932 350.000854,232.998154 
	C350.000854,232.998154 349.988953,233.021912 350.003937,233.740707 
	C351.320312,234.841888 352.636688,235.943069 354.000031,237.001022 
	C354.000031,237.001022 353.967804,237.056503 354.191589,237.486282 
	C354.399139,237.749741 354.664337,237.926834 354.999146,238.000427 
	C354.999146,238.000427 354.980530,238.011566 355.193115,238.632751 
	C356.122925,239.094437 357.052734,239.556122 358.000000,239.999786 
	C358.000000,239.999786 357.987732,240.021439 358.237976,240.457993 
	C358.514343,240.642044 358.790741,240.826111 359.488922,241.097336 
	C359.488922,241.097336 359.894073,241.243530 360.198120,241.592133 
	C360.429260,241.809479 360.700897,241.946548 360.997467,242.002151 
	C360.997467,242.002151 360.996460,241.986435 361.258087,242.623276 
	C362.501221,243.085495 363.744354,243.547699 365.000427,244.000000 
	C365.000427,244.000000 364.992523,244.015015 365.239594,244.655212 
	C366.483002,245.125748 367.726440,245.596298 369.457733,246.184296 
	C369.617126,246.235046 369.776489,246.285797 370.217255,246.683258 
	C370.450928,246.887222 370.722626,246.997818 371.670593,247.096725 
	C372.093262,247.162201 372.515900,247.227676 373.198761,247.641891 
	C373.411377,247.854538 373.666321,247.983551 374.000000,248.000000 
	C374.000000,248.000000 373.966858,248.032639 374.270844,248.675018 
	C378.212219,249.455276 382.153564,250.235550 386.821472,251.064102 
	C387.545135,251.128876 388.268829,251.193665 389.678162,251.613586 
	C396.135315,251.501053 402.592438,251.388535 409.767029,251.165207 
	C410.492584,251.134872 411.218109,251.104538 412.463348,251.425903 
	C413.701660,251.065247 414.939941,250.704575 416.758270,250.221634 
	C417.152557,250.192398 417.546875,250.163177 418.187683,250.581070 
	C422.817810,249.164795 427.447937,247.748505 432.517883,246.157974 
	C432.517883,246.157974 432.969543,246.017181 433.689056,246.018433 
	C434.792511,245.339081 435.895966,244.659714 437.003021,244.001282 
	C437.003021,244.001282 436.982849,243.998718 437.407745,243.857544 
	C437.677979,243.713699 437.897369,243.513992 438.514648,243.115524 
	C438.514648,243.115524 438.974518,243.014053 439.408875,242.906296 
	C439.691132,242.778732 439.909973,242.580978 440.503448,242.167068 
	C440.503448,242.167068 440.945892,242.034897 441.622589,241.992966 
	C442.423584,241.334000 443.224579,240.675034 444.002136,240.002563 
	C444.002136,240.002563 444.012146,240.027588 444.773224,240.040649 
	C450.134216,238.585022 451.758392,236.255081 451.982117,229.793091 
	C452.286530,221.001053 452.645508,212.210785 452.915894,203.417755 
	C453.012970,200.261078 453.316193,197.901688 457.676666,198.469254 
	C461.673981,198.989578 463.837006,196.529694 463.946320,192.497192 
	C464.013885,190.004425 464.513397,187.309479 463.746887,185.072693 
	C463.082458,183.133728 461.076904,180.531540 459.369629,180.288116 
	C454.685822,179.620361 449.847076,180.030991 445.069641,180.030289 
	C430.929901,180.028214 416.789307,179.958099 402.651520,180.126389 
	C400.766907,180.148834 398.896881,181.394302 397.004974,181.998764 
	C397.004974,181.998764 397.079834,181.984985 396.598724,182.667374 
	C396.387329,185.465958 396.020264,188.263229 395.996246,191.063416 
	C395.942169,197.369904 396.531189,197.929749 402.768005,197.965042 
	C409.424652,198.002731 416.082031,197.932617 422.738464,197.985718 
	C429.257446,198.037720 429.979279,198.763626 430.022644,205.091019 
	C430.056854,210.083450 429.837799,215.085999 430.089996,220.065903 
	C430.296417,224.141663 429.633392,227.620361 425.999146,229.999146 
	C425.999146,229.999146 425.993927,229.983246 425.195953,229.944000 
	C422.753082,230.873337 420.310242,231.802689 417.266815,232.854919 
	C416.858551,232.874786 416.450287,232.894638 415.513275,232.556671 
	C413.985168,232.930847 412.457031,233.305023 410.313080,233.828674 
	C409.893005,233.874649 409.472900,233.920624 408.432495,233.573624 
	C403.941956,233.707855 399.451447,233.842087 394.240509,233.894775 
	C393.522675,233.815079 392.804871,233.735397 391.561249,233.136154 
	C389.032593,232.758362 386.503906,232.380569 384.003998,231.996948 
	C384.003998,231.996948 384.000519,232.026276 383.708588,231.372238 
	C382.121887,230.905472 380.535156,230.438705 378.542114,229.906235 
	C378.542114,229.906235 378.158905,229.756027 377.854034,229.149750 
	C376.237305,228.426498 374.620544,227.703247 373.002563,226.996689 
	C373.002563,226.996689 373.018280,226.995270 372.801575,226.362808 
	C371.848328,225.901993 370.895081,225.441177 369.513184,224.902176 
	C369.513184,224.902176 369.093933,224.783478 368.786316,224.444458 
	C368.564484,224.223969 368.302032,224.075241 368.000000,224.000000 
	C368.000000,224.000000 368.001373,224.001633 367.820496,223.546738 
	C367.634247,223.262360 367.380829,223.063568 366.590912,222.766235 
	C366.410553,222.491150 366.230164,222.216064 365.830475,221.514954 
	C365.633881,221.249100 365.378571,221.064499 364.999451,220.992355 
	C364.999451,220.992355 365.040436,220.932419 364.853546,220.494247 
	C364.669250,220.215073 364.414673,220.035706 364.022308,219.993607 
	C364.022308,219.993607 364.035309,219.917572 363.814331,219.502747 
	C363.614014,219.246597 363.357452,219.074097 362.996277,218.998062 
	C362.996277,218.998062 363.016327,218.952011 362.808258,218.516739 
	C362.609100,218.244675 362.345398,218.070038 362.000000,218.001099 
	C362.000000,218.001099 362.005798,217.984344 361.821014,217.558243 
	C361.652130,217.294113 361.447449,217.061478 361.087585,216.480194 
	C361.087585,216.480194 361.029266,216.086029 360.998993,215.402100 
	C360.327576,214.598007 359.656128,213.793915 359.006104,212.995514 
	C359.006104,212.995514 359.007202,213.017731 359.030975,212.234375 
	C356.781189,206.764130 354.531403,201.293900 352.176422,195.237213 
	C352.172882,194.839981 352.169342,194.442764 352.510925,193.399704 
	C352.349640,186.247986 352.188354,179.096268 352.097839,171.245605 
	C352.167297,170.548981 352.236786,169.852371 352.877930,168.775284 
	C354.261963,164.152328 355.645996,159.529373 357.102539,154.512314 
	C357.102539,154.512314 357.253082,154.140961 357.604980,153.837692 
	C357.824005,153.606354 357.962372,153.334045 358.000000,153.000000 
	C358.000000,153.000000 358.021210,153.020432 358.639160,152.805588 
	C359.101746,151.877228 359.564362,150.948868 360.000427,150.000214 
	C360.000427,150.000214 360.023102,150.024414 360.705627,149.889343 
	C361.803589,148.257202 362.901581,146.625076 364.000427,145.000427 
	C364.000427,145.000427 363.992706,144.999573 364.702850,144.974487 
	C368.844147,141.741852 372.985474,138.509201 377.521271,135.126282 
	C377.521271,135.126282 377.932953,135.032928 378.794128,135.057434 
	C384.871399,133.787415 390.948639,132.517395 397.759247,131.122513 
	C398.499969,131.159317 399.240662,131.196121 400.685181,131.571365 
	C404.482208,131.750214 408.279205,131.929062 412.674042,132.122406 
	C413.066223,132.185974 413.458405,132.249557 414.274414,132.892929 
	C418.434204,134.934586 422.593964,136.976242 426.874969,139.752808 
	C426.900696,140.497574 426.926453,141.242355 426.570953,142.679337 
	C427.296356,148.794357 428.021790,154.909393 428.963806,161.566895 
	C429.264465,161.806763 429.565155,162.046616 430.314728,162.905579 
	C434.527771,163.233994 438.739319,163.798508 442.954315,163.826019 
	C447.382690,163.854904 449.301697,161.563599 449.008820,156.871765 
	C448.433014,147.647552 448.403503,138.390106 447.911835,129.158997 
	C447.818817,127.412651 446.630524,125.724640 446.002869,124.001045 
	C446.002869,124.001045 445.985657,124.054306 445.741882,123.403008 
	C444.484406,122.928490 443.226959,122.453979 441.537415,121.875053 
	C441.537415,121.875053 441.122131,121.716522 440.788086,121.120644 
	C439.646515,120.471405 438.575378,119.608459 437.352631,119.205544 
	C422.989227,114.472397 408.212067,112.617668 393.132660,113.208946 
	C391.377808,113.277763 389.657013,114.215134 387.215210,114.865585 
	C386.500305,114.885506 385.785400,114.905426 384.449554,114.562218 
	C378.962128,115.881905 373.424835,117.031174 368.014801,118.615211 
	C366.161713,119.157791 364.627502,120.789375 362.993988,121.992859 
	C362.993988,121.992859 362.919464,121.955284 362.497009,122.164597 
	C362.230133,122.353645 362.047668,122.604172 361.992889,122.989319 
	C361.992889,122.989319 361.916962,122.951187 361.515686,123.091393 
	C361.260529,123.236542 361.067566,123.440552 360.465454,123.857368 
	C360.465454,123.857368 359.981323,123.964737 359.550720,124.094765 
	C359.278748,124.244102 359.071381,124.456520 358.485046,124.884438 
	C358.485046,124.884438 358.027863,124.989326 357.582947,125.210701 
	C357.304321,125.408936 357.103790,125.667702 356.999573,125.999786 
	C356.999573,125.999786 356.985626,125.982552 356.569122,126.109375 
	C356.303375,126.248573 356.097412,126.449158 355.408875,126.951759 
	C354.929932,127.287292 354.450989,127.622826 353.536896,128.186584 
	C353.265686,128.390686 353.079590,128.654770 353.000000,129.000000 
	C353.000000,129.000000 352.978577,128.978760 352.540710,129.188477 
	C352.264191,129.380875 352.074860,129.637558 352.000732,129.999359 
	C352.000732,129.999359 351.958893,129.973770 351.532562,130.198318 
	C351.266663,130.399017 351.084564,130.658508 351.000000,131.000214 
	C351.000000,131.000214 350.980499,130.981415 350.251740,130.997574 
	C348.828918,132.677307 347.406128,134.357025 345.829498,136.490265 
	C345.642395,136.775513 345.380249,136.944000 344.370392,137.167084 
	C343.228668,139.086685 342.086914,141.006302 340.829987,143.443741 
	C340.774261,143.611557 340.718536,143.779373 340.314117,144.186447 
	C340.103577,144.393509 339.987183,144.644257 339.999115,144.996552 
	C339.999115,144.996552 339.940216,144.964554 339.306946,145.224823 
	C338.860687,146.477432 338.414429,147.730042 337.997650,148.998367 
	C337.997650,148.998367 337.978668,148.971573 337.336121,149.219666 
	C335.868866,154.156052 334.401611,159.092438 332.880219,164.749207 
	C332.832764,165.467468 332.785309,166.185715 332.183807,167.376297 
	C331.493439,168.825912 330.253204,170.258514 330.207703,171.728104 
	C330.008667,178.156647 329.744080,184.633499 330.326111,191.017792 
	C330.699249,195.110657 332.506012,199.072815 333.800049,203.721024 
	C333.844238,204.145935 333.888397,204.570831 333.638245,205.568512 
	C335.071594,209.061752 336.504974,212.554993 337.997498,216.001083 
	C337.997498,216.001083 337.957794,216.065186 338.091919,216.480133 
	C338.238342,216.743256 338.445160,216.944244 338.873962,217.543274 
	C338.873962,217.543274 338.969391,218.021591 339.076843,218.446426 
	C339.206726,218.722290 339.407623,218.929230 339.847321,219.541351 
	C339.886658,219.704315 339.926025,219.867279 340.080383,220.447906 
	C340.214294,220.717270 340.416321,220.918060 340.846985,221.552551 
	C340.888733,221.723267 340.930481,221.893997 341.092072,222.462296 
	C341.223755,222.718979 341.420105,222.908691 341.849365,223.519318 
	C341.891357,223.686142 341.933350,223.852951 342.007660,224.718735 
	C343.007629,225.816467 344.007599,226.914200 344.996582,228.003891 
	C344.996582,228.003891 344.988342,227.993301 345.202087,228.440750 
	C345.396179,228.723816 345.654816,228.923187 346.443115,229.191422 
	C346.740051,229.375900 346.916534,229.640686 347.185181,230.433899 
	C347.385925,230.712921 347.650787,230.902176 348.002136,230.997772 
	C348.002136,230.997772 347.998016,231.020111 348.200989,231.457352 
	C348.395569,231.730469 348.654205,231.912811 349.002136,231.998062 
	C349.002136,231.998062 348.995453,232.023346 349.198334,232.460281 
M133.372299,121.957047 
	C131.555145,121.253349 129.793427,120.276817 127.911018,119.894180 
	C120.576317,118.403290 113.253212,116.459877 105.832603,115.882462 
	C95.441383,115.073906 84.967659,115.256981 74.527885,115.161438 
	C64.960670,115.073891 55.372051,115.555473 45.830963,115.057007 
	C40.240520,114.764931 38.889656,115.249153 38.900593,120.816322 
	C38.907036,124.096199 38.901768,127.376083 38.901768,131.025513 
	C44.088573,131.025513 48.702099,131.025513 54.052017,131.025513 
	C54.052017,165.481110 54.052017,199.541916 54.052017,233.989197 
	C48.560829,233.989197 43.955521,233.989197 39.328339,233.989197 
	C39.328339,239.585770 39.328339,244.782547 39.328339,250.161133 
	C59.228607,250.161133 78.716614,250.057465 98.202705,250.205811 
	C107.633369,250.277603 116.742813,249.373505 125.840775,246.392563 
	C145.123749,240.074509 157.244766,227.243439 163.112701,208.084503 
	C167.371429,194.179626 167.508408,180.092484 165.062851,165.886978 
	C161.707932,146.399246 152.447525,131.110916 133.372299,121.957047 
M295.586700,233.067001 
	C303.013489,225.939270 307.461823,217.081650 310.120392,207.310699 
	C314.205963,192.295059 314.415497,177.105469 311.064392,161.944870 
	C307.169952,144.326355 298.122253,130.364304 281.717316,121.789078 
	C270.304260,115.823257 258.095428,114.595459 245.456406,114.858704 
	C218.525421,115.419609 196.796982,129.610779 188.922928,155.974701 
	C183.443893,174.319626 183.203171,192.943558 189.531006,211.199631 
	C194.780746,226.345398 204.475906,237.809021 219.182892,244.877350 
	C230.191895,250.168381 241.760544,251.507401 253.763351,251.115860 
	C269.839966,250.591415 283.951080,245.648499 295.586700,233.067001 
z"/>
<path fill="#F56349" opacity="1.000000" stroke="none" 
	d="
M104.293579,294.881042 
	C100.997772,295.083466 100.048622,293.654633 100.102448,290.945160 
	C100.208305,285.616791 99.903076,280.269867 100.261749,274.964020 
	C100.354378,273.593781 102.261505,271.230591 103.365906,271.212585 
	C118.655197,270.963501 133.949860,271.044189 149.589569,271.044189 
	C149.589569,279.055450 149.589569,286.628754 149.589569,294.803467 
	C146.513153,294.803467 143.450455,294.803467 140.130798,294.803467 
	C140.130798,317.464447 140.130798,339.528717 140.130798,361.515167 
	C140.593628,361.756134 140.866669,362.014984 141.152786,362.030365 
	C149.806290,362.495575 149.809540,362.491791 149.829422,371.072754 
	C149.838684,375.070923 149.767685,379.070587 149.857620,383.066742 
	C149.919403,385.812561 148.778320,386.937866 145.991882,386.922852 
	C131.999084,386.847321 118.005417,386.828644 104.012787,386.912750 
	C100.812386,386.931976 100.050880,385.371765 100.112701,382.568665 
	C100.222870,377.573303 100.443718,372.551758 100.068123,367.582733 
	C99.723091,363.018097 101.485985,361.527527 105.783646,362.138184 
	C107.049652,362.318085 108.379333,362.049896 110.235649,361.960144 
	C110.636055,354.348389 111.023056,346.991455 111.431160,339.233276 
	C96.723106,339.233276 82.655624,339.233276 67.608727,339.233276 
	C67.950508,346.710236 68.292061,354.182190 68.617790,361.308014 
	C69.528412,361.787506 69.806587,362.053436 70.099503,362.070831 
	C78.837257,362.589539 78.836517,362.585663 78.849449,371.569611 
	C78.854729,375.234558 78.712135,378.908112 78.918549,382.561859 
	C79.106682,385.892120 77.665588,386.916473 74.508774,386.895569 
	C60.682625,386.803894 46.854805,386.921417 33.029854,386.764160 
	C31.779957,386.749939 29.548660,385.403717 29.470015,384.524292 
	C29.024057,379.537598 29.092482,374.504700 28.993847,369.487335 
	C28.984095,368.991272 29.194550,368.425934 29.022762,368.007782 
	C26.736952,362.443787 29.964397,361.841095 34.247929,362.112457 
	C35.367340,362.183380 36.495060,362.123169 38.373428,362.123169 
	C38.373428,339.688019 38.373428,317.670380 38.373428,295.083679 
	C35.795795,295.083679 32.742203,295.083679 29.403824,295.083679 
	C29.403824,286.940277 29.403824,279.354370 29.403824,271.052643 
	C34.164135,271.052643 38.922386,271.051910 43.680641,271.052826 
	C53.676071,271.054688 63.674316,271.194794 73.665497,270.989929 
	C77.483749,270.911713 79.208237,271.961151 78.916603,276.043396 
	C78.632515,280.020203 78.888954,284.034210 78.871338,288.031708 
	C78.841629,294.774414 78.829285,294.765686 72.308983,294.874390 
	C71.010574,294.896057 69.713737,295.011932 67.851143,295.115936 
	C67.851143,302.273438 67.697632,309.223633 68.017296,316.152008 
	C68.065025,317.186554 70.319847,318.946350 71.579224,318.969360 
	C83.569450,319.188354 95.566307,319.176941 107.557648,318.994781 
	C108.736801,318.976868 110.919060,317.350433 110.896706,316.517273 
	C110.707550,309.466125 110.114159,302.425842 109.608704,294.883698 
	C107.978821,294.883698 106.362122,294.883698 104.293579,294.881042 
z"/>
<path fill="#F66349" opacity="1.000000" stroke="none" 
	d="
M199.004272,353.807953 
	C197.964447,356.301697 196.924606,358.795410 195.577606,362.025787 
	C198.220398,362.421082 200.491196,362.479218 202.548004,363.172424 
	C203.811752,363.598297 205.645218,364.958588 205.686615,365.962646 
	C205.964951,372.713593 205.831528,379.481537 205.831528,386.581635 
	C188.902023,386.581635 173.338745,386.581635 157.434174,386.581635 
	C157.434174,378.960785 157.434174,371.381836 157.434174,363.750732 
	C157.636780,363.602631 157.932114,363.215454 158.143585,363.256836 
	C166.081146,364.810028 168.394363,360.208160 170.606873,353.541229 
	C177.722092,332.100861 185.592590,310.910797 193.200958,289.634583 
	C195.114502,284.283478 197.005936,278.916077 199.211945,273.684540 
	C199.696381,272.535706 201.463898,271.214813 202.663361,271.192322 
	C213.151474,270.995880 223.645752,271.012146 234.135147,271.169128 
	C235.247696,271.185760 237.001251,272.277039 237.345856,273.259613 
	C245.281250,295.884613 253.062332,318.563721 260.931000,342.020508 
	C262.867371,348.664215 264.581421,354.581604 266.741974,360.331268 
	C267.255646,361.698273 269.117126,363.099121 270.609375,363.466888 
	C278.005829,365.289459 278.037476,365.169373 278.038513,372.658051 
	C278.038818,374.989227 277.861938,377.333801 278.053040,379.648621 
	C278.396942,383.815094 276.575439,385.147339 272.504303,385.119568 
	C260.689148,385.038971 248.869934,385.417328 237.057709,385.245667 
	C235.687088,385.225739 233.343857,382.997681 233.183975,381.595764 
	C232.677841,377.157867 232.715698,372.599243 233.147720,368.145966 
	C233.292267,366.655914 235.187378,365.279175 236.411621,363.971680 
	C237.144257,363.189270 238.127457,362.641418 238.998016,361.988098 
	C238.998016,361.988098 239.001114,362.003021 239.303543,361.914154 
	C238.828003,359.162140 238.050049,356.498962 237.272079,353.835815 
	C237.272079,353.835815 237.133850,353.446442 236.916382,352.885986 
	C228.290665,352.164673 219.882431,352.003815 211.377930,351.900726 
	C211.281647,351.958496 211.105789,351.818848 211.105789,351.818848 
	C210.649323,351.818085 210.192871,351.817291 209.116104,351.619934 
	C206.979553,351.570251 205.463303,351.717194 203.947052,351.864105 
	C203.212723,351.866913 202.478409,351.869720 201.162155,351.788361 
	C200.054901,352.405426 199.529587,353.106689 199.004272,353.807953 
M215.737595,304.188995 
	C212.502472,313.556915 209.267349,322.924866 205.831787,332.873169 
	C214.887985,332.873169 222.320007,332.873169 230.257935,332.873169 
	C226.268707,320.962616 222.400421,309.413086 218.073730,296.494904 
	C217.002914,299.788239 216.418762,301.584778 215.737595,304.188995 
z"/>
<path fill="#F3644A" opacity="1.000000" stroke="none" 
	d="
M417.999817,386.861938 
	C407.840393,386.865997 398.180237,386.805115 388.521881,386.908936 
	C384.694489,386.950073 382.726532,385.770508 383.038940,381.491669 
	C383.365631,377.017975 383.398712,372.481720 383.054993,368.011627 
	C382.704315,363.451324 384.192505,361.390869 388.908539,362.109406 
	C390.039062,362.281647 391.218170,362.134979 393.033997,362.134979 
	C393.033997,339.912872 393.033997,317.915924 393.033997,295.187164 
	C391.391022,295.106293 389.326843,294.868408 387.272736,294.936249 
	C384.345734,295.032959 382.994537,293.904724 383.065369,290.848480 
	C383.188812,285.521484 382.876343,280.173828 383.251526,274.870575 
	C383.346405,273.529510 385.331757,271.237854 386.477875,271.219452 
	C401.767151,270.973969 417.061676,271.055359 432.667938,271.055359 
	C432.667938,278.985992 432.667938,286.569153 432.667938,294.691986 
	C429.682037,294.691986 426.621124,294.691986 423.233398,294.691986 
	C423.233398,317.288635 423.233398,339.352997 423.233398,362.089996 
	C429.435150,362.089996 435.701172,362.267914 441.938232,361.922852 
	C443.036255,361.862091 444.623138,359.744598 444.924469,358.348236 
	C445.645264,355.007996 445.748077,351.532806 446.074158,348.109558 
	C446.329163,345.432800 447.485229,344.002838 450.462616,344.078735 
	C456.288055,344.227295 462.121948,344.199982 467.948669,344.075134 
	C470.714417,344.015900 471.851288,345.047485 471.833069,347.853790 
	C471.759705,359.178619 471.746399,370.504761 471.850006,381.829163 
	C471.877258,384.809814 470.834778,385.920776 467.783295,385.959106 
	C451.354309,386.165558 434.927429,386.543976 417.999817,386.861938 
z"/>
<path fill="#FD6348" opacity="1.000000" stroke="none" 
	d="
M326.908600,294.758087 
	C326.908600,294.758087 326.487488,294.913849 325.941040,295.095734 
	C324.473389,297.867615 323.131958,300.400757 322.771301,303.066589 
	C322.508636,305.007874 323.916077,307.120941 323.934174,309.163147 
	C324.052338,322.490692 324.063873,335.820587 323.925507,349.147766 
	C323.902557,351.358002 322.973785,353.558868 322.390778,356.078918 
	C322.933197,357.769684 323.390686,360.184784 324.482269,362.267487 
	C325.274109,363.778229 326.894592,365.916748 328.164948,365.930084 
	C333.577820,365.987000 338.994202,365.289490 344.416321,364.996582 
	C350.147766,364.687042 352.358887,361.764435 351.130005,355.894165 
	C349.817871,349.626251 351.993286,346.968964 358.474457,346.948395 
	C361.973175,346.937286 365.523651,346.596466 368.951172,347.092560 
	C370.981018,347.386353 372.816742,349.021149 374.739777,350.052979 
	C374.777222,350.767029 374.814667,351.481110 374.511414,352.670166 
	C373.620850,354.958130 372.675537,356.752777 372.590363,358.587341 
	C372.244263,366.041504 372.321564,373.518616 371.820129,380.958832 
	C371.739960,382.148682 369.508270,384.156067 368.263458,384.162048 
	C345.778076,384.269989 323.291626,384.110443 300.805237,384.047119 
	C287.913574,384.010834 287.561066,383.620758 289.049072,370.417480 
	C289.397583,367.325165 290.429962,365.395752 294.026276,364.657104 
	C296.109283,364.229248 299.069183,361.820618 299.291992,360.014496 
	C299.648529,357.124054 298.058044,353.993469 297.290619,350.964386 
	C297.248016,334.287201 297.205383,317.609985 297.376923,300.237793 
	C297.487122,298.683594 297.383179,297.824371 297.279266,296.965179 
	C297.279266,296.965179 297.128113,296.509552 297.057861,296.087158 
	C296.641266,295.443115 296.294952,295.221527 295.948639,294.999908 
	C295.523407,294.949188 295.098145,294.898438 294.231628,294.696594 
	C293.469238,294.446198 293.187622,294.514008 292.945587,294.748932 
	C292.533630,294.788788 292.121704,294.828644 291.276062,294.536560 
	C289.567688,290.481232 288.292999,286.757843 287.018311,283.034454 
	C287.054230,281.959320 287.090149,280.884186 287.442688,279.171936 
	C289.259857,276.201752 289.393646,272.842773 293.646545,272.928986 
	C305.258453,273.164337 316.878357,273.037109 328.494873,272.992676 
	C331.546631,272.980988 333.451111,274.493347 333.422241,277.374451 
	C333.356934,283.887817 335.646271,291.443359 326.908600,294.758087 
M352.473206,364.501648 
	C352.473206,364.501648 352.508392,364.490845 352.473206,364.501648 
z"/>
<path fill="#D9654E" opacity="1.000000" stroke="none" 
	d="
M297.197449,351.390839 
	C298.058044,353.993469 299.648529,357.124054 299.291992,360.014496 
	C299.069183,361.820618 296.109283,364.229248 294.026276,364.657104 
	C290.429962,365.395752 289.397583,367.325165 289.049072,370.417480 
	C287.561066,383.620758 287.913574,384.010834 300.805237,384.047119 
	C323.291626,384.110443 345.778076,384.269989 368.263458,384.162048 
	C369.508270,384.156067 371.739960,382.148682 371.820129,380.958832 
	C372.321564,373.518616 372.244263,366.041504 372.590363,358.587341 
	C372.675537,356.752777 373.620850,354.958130 374.437439,353.021393 
	C374.777893,362.885071 374.770721,372.874115 374.968018,382.859100 
	C375.039551,386.478363 372.781067,386.849854 370.172638,386.854126 
	C344.470490,386.896240 318.768219,386.906860 293.066010,386.913147 
	C287.212555,386.914581 286.169983,385.857635 286.141968,379.982269 
	C286.122925,375.985229 286.387421,371.968079 286.070435,367.996185 
	C285.712372,363.509338 287.124146,361.337708 291.896454,362.015259 
	C293.153229,362.193695 294.477844,361.894501 295.831421,361.810944 
	C296.277649,358.307281 296.690948,355.062286 297.197449,351.390839 
z"/>
<path fill="#D9654E" opacity="1.000000" stroke="none" 
	d="
M374.832855,349.632416 
	C372.816742,349.021149 370.981018,347.386353 368.951172,347.092560 
	C365.523651,346.596466 361.973175,346.937286 358.474457,346.948395 
	C351.993286,346.968964 349.817871,349.626251 351.130005,355.894165 
	C352.358887,361.764435 350.147766,364.687042 344.416321,364.996582 
	C338.994202,365.289490 333.577820,365.987000 328.164948,365.930084 
	C326.894592,365.916748 325.274109,363.778229 324.482269,362.267487 
	C323.390686,360.184784 322.933197,357.769684 322.390778,356.078918 
	C322.973785,353.558868 323.902557,351.358002 323.925507,349.147766 
	C324.063873,335.820587 324.052338,322.490692 323.934174,309.163147 
	C323.916077,307.120941 322.508636,305.007874 322.771301,303.066589 
	C323.131958,300.400757 324.473389,297.867615 325.720215,295.136230 
	C326.045837,317.078796 326.045837,339.162750 326.045837,361.661377 
	C333.320007,361.661377 340.495453,361.661377 347.933044,361.661377 
	C348.311005,357.348419 348.790924,353.130341 349.016357,348.898682 
	C349.194305,345.558868 350.309723,343.775391 354.081848,343.957886 
	C359.385345,344.214600 364.720367,344.219086 370.023346,343.956299 
	C374.061279,343.756195 375.548676,345.352356 374.832855,349.632416 
z"/>
<path fill="#BC6452" opacity="1.000000" stroke="none" 
	d="
M238.565948,361.991516 
	C238.127457,362.641418 237.144257,363.189270 236.411621,363.971680 
	C235.187378,365.279175 233.292267,366.655914 233.147720,368.145966 
	C232.715698,372.599243 232.677841,377.157867 233.183975,381.595764 
	C233.343857,382.997681 235.687088,385.225739 237.057709,385.245667 
	C248.869934,385.417328 260.689148,385.038971 272.504303,385.119568 
	C276.575439,385.147339 278.396942,383.815094 278.053040,379.648621 
	C277.861938,377.333801 278.038818,374.989227 278.038513,372.658051 
	C278.037476,365.169373 278.005829,365.289459 270.609375,363.466888 
	C269.117126,363.099121 267.255646,361.698273 266.741974,360.331268 
	C264.581421,354.581604 262.867371,348.664215 260.985352,342.414368 
	C263.244354,347.212006 265.913544,352.273956 267.627228,357.640991 
	C268.748901,361.153961 270.321686,362.602661 273.839233,362.025482 
	C278.648865,361.236237 280.419464,363.199646 280.058685,368.072845 
	C279.691162,373.037598 280.222046,378.069061 279.851166,383.033295 
	C279.747803,384.416840 277.861725,386.788788 276.761810,386.807098 
	C261.671967,387.058380 246.576553,386.976501 230.979431,386.976501 
	C230.979431,379.391754 230.643936,372.259247 231.103851,365.178375 
	C231.384750,360.853821 235.432968,362.341248 238.565948,361.991516 
z"/>
<path fill="#D9654E" opacity="1.000000" stroke="none" 
	d="
M327.363098,294.832703 
	C335.646271,291.443359 333.356934,283.887817 333.422241,277.374451 
	C333.451111,274.493347 331.546631,272.980988 328.494873,272.992676 
	C316.878357,273.037109 305.258453,273.164337 293.646545,272.928986 
	C289.393646,272.842773 289.259857,276.201752 287.505493,278.773193 
	C287.251709,276.553162 287.251709,274.094757 287.251709,271.317688 
	C303.430328,271.317688 319.438080,271.317688 335.689148,271.317688 
	C335.689148,279.058136 335.689148,286.623718 335.689148,294.907349 
	C332.977966,294.907349 330.397797,294.907349 327.363098,294.832703 
z"/>
<path fill="#D9654E" opacity="1.000000" stroke="none" 
	d="
M286.656708,283.231476 
	C288.292999,286.757843 289.567688,290.481232 290.969788,294.477722 
	C288.731842,295.271240 286.988342,295.087616 286.950500,291.941956 
	C286.916351,289.101929 286.527527,286.266144 286.656708,283.231476 
z"/>
<path fill="#FFDBD3" opacity="1.000000" stroke="none" 
	d="
M470.752014,105.041931 
	C461.714447,105.328835 452.844330,105.165543 443.508270,105.008194 
	C443.996552,104.674889 444.955017,104.030899 445.904358,104.044098 
	C454.243683,104.160141 462.581329,104.393288 470.752014,105.041931 
z"/>
<path fill="#BC6452" opacity="1.000000" stroke="none" 
	d="
M211.474197,351.842957 
	C219.882431,352.003815 228.290665,352.164673 236.864365,352.686035 
	C236.831329,353.032776 236.632812,353.018982 235.843842,352.656677 
	C227.326996,352.153076 219.400604,351.998016 211.474197,351.842957 
z"/>
<path fill="#FFDAD3" opacity="1.000000" stroke="none" 
	d="
M211.377930,351.900726 
	C219.400604,351.998016 227.326996,352.153076 235.554291,352.584229 
	C227.638138,352.815979 219.421082,352.771637 211.154907,352.273071 
	C211.105789,351.818848 211.281647,351.958496 211.377930,351.900726 
z"/>
<path fill="#BC6452" opacity="1.000000" stroke="none" 
	d="
M237.180054,354.220306 
	C238.050049,356.498962 238.828003,359.162140 239.296234,361.910858 
	C238.353668,359.532562 237.720840,357.068665 237.180054,354.220306 
z"/>
<path fill="#BC6452" opacity="1.000000" stroke="none" 
	d="
M204.110962,352.212219 
	C205.463303,351.717194 206.979553,351.570251 208.773895,351.629486 
	C207.459610,352.077209 205.867233,352.318787 204.110962,352.212219 
z"/>
<path fill="#BC6452" opacity="1.000000" stroke="none" 
	d="
M199.298889,353.799927 
	C199.529587,353.106689 200.054901,352.405426 200.798523,351.839691 
	C200.542389,352.580780 200.067947,353.186310 199.298889,353.799927 
z"/>
<path fill="#D9654E" opacity="1.000000" stroke="none" 
	d="
M297.188354,297.340027 
	C297.383179,297.824371 297.487122,298.683594 297.440308,299.773254 
	C297.225555,299.240784 297.161499,298.477844 297.188354,297.340027 
z"/>
<path fill="#D9654E" opacity="1.000000" stroke="none" 
	d="
M296.017273,295.265991 
	C296.294952,295.221527 296.641266,295.443115 296.999573,295.854309 
	C296.703033,295.873291 296.394470,295.702698 296.017273,295.265991 
z"/>
<path fill="#D9654E" opacity="1.000000" stroke="none" 
	d="
M293.221039,294.819733 
	C293.187622,294.514008 293.469238,294.446198 293.915833,294.636200 
	C293.859680,294.781494 293.678101,294.836029 293.221039,294.819733 
z"/>
<path fill="#000000" opacity="1.000000" stroke="none" 
	d="
M133.697586,122.160950 
	C152.447525,131.110916 161.707932,146.399246 165.062851,165.886978 
	C167.508408,180.092484 167.371429,194.179626 163.112701,208.084503 
	C157.244766,227.243439 145.123749,240.074509 125.840775,246.392563 
	C116.742813,249.373505 107.633369,250.277603 98.202705,250.205811 
	C78.716614,250.057465 59.228607,250.161133 39.328339,250.161133 
	C39.328339,244.782547 39.328339,239.585770 39.328339,233.989197 
	C43.955521,233.989197 48.560829,233.989197 54.052017,233.989197 
	C54.052017,199.541916 54.052017,165.481110 54.052017,131.025513 
	C48.702099,131.025513 44.088573,131.025513 38.901768,131.025513 
	C38.901768,127.376083 38.907036,124.096199 38.900593,120.816322 
	C38.889656,115.249153 40.240520,114.764931 45.830963,115.057007 
	C55.372051,115.555473 64.960670,115.073891 74.527885,115.161438 
	C84.967659,115.256981 95.441383,115.073906 105.832603,115.882462 
	C113.253212,116.459877 120.576317,118.403290 127.911018,119.894180 
	C129.793427,120.276817 131.555145,121.253349 133.697586,122.160950 
M136.907532,146.668961 
	C130.747253,139.712845 123.660721,133.970917 114.087112,133.160110 
	C101.593620,132.102020 89.039383,131.768738 76.514023,131.074127 
	C73.373322,130.899948 73.054352,132.786606 73.056503,135.223877 
	C73.084641,167.048874 73.111275,198.873947 73.037064,230.698776 
	C73.029350,234.007111 74.270012,235.072052 77.483582,234.934753 
	C88.409622,234.467911 99.378540,234.606995 110.263390,233.701172 
	C118.739632,232.995804 126.641495,229.550064 132.638885,223.475769 
	C143.331467,212.646103 147.438187,198.799698 147.717651,184.008362 
	C147.965805,170.873810 145.253326,158.230133 136.907532,146.668961 
z"/>
<path fill="#000000" opacity="1.000000" stroke="none" 
	d="
M417.941162,250.133942 
	C417.546875,250.163177 417.152557,250.192398 416.092712,250.166656 
	C414.265991,250.432526 413.104828,250.753372 411.943665,251.074203 
	C411.218109,251.104538 410.492584,251.134872 408.946045,251.110504 
	C401.747528,251.123352 395.369995,251.190903 388.992493,251.258453 
	C388.268829,251.193665 387.545135,251.128876 386.241425,250.707291 
	C381.763214,249.577866 377.865021,248.805252 373.966858,248.032639 
	C373.966858,248.032639 374.000000,248.000000 373.922638,247.763458 
	C373.543030,247.448975 373.240814,247.371063 372.938568,247.293152 
	C372.515900,247.227676 372.093262,247.162201 371.263611,246.809921 
	C370.549744,246.460922 370.242798,246.398727 369.935883,246.336517 
	C369.776489,246.285797 369.617126,246.235046 369.093262,245.804504 
	C367.483398,244.954803 366.237946,244.484909 364.992523,244.015015 
	C364.992523,244.015015 365.000427,244.000000 364.863037,243.692657 
	C363.482574,242.919022 362.239532,242.452728 360.996460,241.986435 
	C360.996460,241.986435 360.997467,242.002151 360.927124,241.745209 
	C360.535889,241.406677 360.214966,241.325104 359.894073,241.243530 
	C359.894073,241.243530 359.488922,241.097336 359.187714,240.803040 
	C358.586914,240.346329 358.287323,240.183884 357.987732,240.021439 
	C357.987732,240.021439 358.000000,239.999786 357.891357,239.697571 
	C356.848663,238.934097 355.914581,238.472824 354.980530,238.011566 
	C354.980530,238.011566 354.999146,238.000427 354.923950,237.759079 
	C354.555084,237.363998 354.261444,237.210251 353.967804,237.056503 
	C353.967804,237.056503 354.000031,237.001022 353.886963,236.712616 
	C352.512268,235.290100 351.250610,234.156006 349.988953,233.021912 
	C349.988953,233.021912 350.000854,232.998154 349.926819,232.753632 
	C349.566986,232.347198 349.281219,232.185272 348.995453,232.023346 
	C348.995453,232.023346 349.002136,231.998062 348.929901,231.751999 
	C348.571106,231.343994 348.284546,231.182053 347.998016,231.020111 
	C347.998016,231.020111 348.002136,230.997772 347.926636,230.746185 
	C347.558289,230.324997 347.265411,230.155380 346.972565,229.985764 
	C346.916534,229.640686 346.740051,229.375900 346.154419,228.855652 
	C345.573273,228.344360 345.280792,228.168823 344.988342,227.993301 
	C344.988342,227.993301 344.996582,228.003891 344.960205,227.677246 
	C343.941010,226.240311 342.958160,225.130035 341.975311,224.019775 
	C341.933350,223.852951 341.891357,223.686142 341.814392,223.031647 
	C341.619080,222.201035 341.350037,222.041290 340.972260,222.064743 
	C340.930481,221.893997 340.888733,221.723267 340.825378,221.047638 
	C340.524292,220.371918 340.244812,220.201080 339.965363,220.030243 
	C339.926025,219.867279 339.886658,219.704315 339.815613,219.051453 
	C339.512390,218.381561 339.240875,218.201569 338.969391,218.021591 
	C338.969391,218.021591 338.873962,217.543274 338.838745,217.053970 
	C338.521606,216.398178 338.239685,216.231689 337.957794,216.065186 
	C337.957794,216.065186 337.997498,216.001083 337.948914,215.639709 
	C336.577759,211.850815 335.255157,208.423279 333.932556,204.995743 
	C333.888397,204.570831 333.844238,204.145935 333.842896,202.996246 
	C333.244141,195.828125 332.299988,189.396225 332.055176,182.937820 
	C331.853180,177.609482 332.478882,172.249786 332.737823,166.903976 
	C332.785309,166.185715 332.832764,165.467468 333.246155,164.198456 
	C335.067596,158.755646 336.523132,153.863602 337.978668,148.971573 
	C337.978668,148.971573 337.997650,148.998367 338.302307,148.864532 
	C339.051392,147.475327 339.495819,146.219940 339.940216,144.964554 
	C339.940216,144.964554 339.999115,144.996552 340.229095,144.914612 
	C340.526978,144.537521 340.594879,144.242371 340.662781,143.947205 
	C340.718536,143.779373 340.774261,143.611557 341.213928,143.085083 
	C342.746277,140.816193 343.894653,138.905960 345.043060,136.995743 
	C345.380249,136.944000 345.642395,136.775513 346.216248,136.146729 
	C348.062164,134.195938 349.521332,132.588669 350.980499,130.981415 
	C350.980499,130.981415 351.000000,131.000214 351.250244,130.933838 
	C351.653259,130.569565 351.806091,130.271667 351.958893,129.973770 
	C351.958893,129.973770 352.000732,129.999359 352.239685,129.922058 
	C352.645294,129.556107 352.811951,129.267441 352.978577,128.978760 
	C352.978577,128.978760 353.000000,129.000000 353.242432,128.921997 
	C353.647278,128.548782 353.809692,128.253586 353.972076,127.958374 
	C354.450989,127.622826 354.929932,127.287292 355.933441,126.879044 
	C356.633881,126.531738 356.809753,126.257141 356.985626,125.982544 
	C356.985626,125.982552 356.999573,125.999786 357.246826,125.931290 
	C357.672028,125.571632 357.849945,125.280479 358.027863,124.989334 
	C358.027863,124.989326 358.485046,124.884438 358.969788,124.853165 
	C359.630096,124.536179 359.805725,124.250465 359.981323,123.964737 
	C359.981323,123.964737 360.465454,123.857368 360.957611,123.830803 
	C361.605499,123.519890 361.761230,123.235535 361.916962,122.951187 
	C361.916962,122.951187 361.992889,122.989319 362.228333,122.911957 
	C362.615631,122.541481 362.767548,122.248383 362.919464,121.955284 
	C362.919464,121.955284 362.993988,121.992859 363.349640,121.938858 
	C370.827026,119.565025 377.948761,117.245186 385.070496,114.925354 
	C385.785400,114.905426 386.500305,114.885506 388.036438,114.903442 
	C397.259277,115.246544 405.744446,114.922997 414.039978,116.025879 
	C423.158386,117.238152 432.102234,119.763351 441.122131,121.716522 
	C441.122131,121.716522 441.537415,121.875053 441.903290,122.234177 
	C443.507996,123.080299 444.746826,123.567307 445.985657,124.054306 
	C445.985657,124.054306 446.002869,124.001045 445.991272,124.436768 
	C445.979706,137.080322 445.979706,149.288147 445.979706,162.286484 
	C441.036743,162.286484 435.451294,162.286484 429.865814,162.286484 
	C429.565155,162.046616 429.264465,161.806763 428.957031,160.854095 
	C428.284241,154.089920 427.618225,148.038513 426.952209,141.987122 
	C426.926453,141.242355 426.900696,140.497574 426.906677,138.996674 
	C425.910980,136.651794 425.187195,134.112000 423.794556,133.667389 
	C420.655701,132.665283 417.185791,132.700195 413.850586,132.313141 
	C413.458405,132.249557 413.066223,132.185974 412.133362,131.751480 
	C407.722260,131.331360 403.851807,131.282150 399.981384,131.232941 
	C399.240662,131.196121 398.499969,131.159317 396.946350,131.095047 
	C389.736267,130.873215 383.476074,131.307373 377.932953,135.032928 
	C377.932953,135.032928 377.521271,135.126282 376.962921,135.118042 
	C372.267273,138.406387 368.130005,141.702972 363.992706,144.999573 
	C363.992706,144.999573 364.000427,145.000427 363.683655,145.110504 
	C362.252319,146.821869 361.137695,148.423141 360.023102,150.024414 
	C360.023102,150.024414 360.000427,150.000214 359.696960,150.105042 
	C358.936096,151.146729 358.478638,152.083572 358.021179,153.020416 
	C358.021210,153.020432 358.000000,153.000000 357.751099,153.084778 
	C357.419128,153.493378 357.336121,153.817169 357.253113,154.140961 
	C357.253082,154.140961 357.102539,154.512314 356.736450,154.883163 
	C355.015686,159.887924 353.660980,164.521835 352.306244,169.155746 
	C352.236786,169.852371 352.167297,170.548981 351.691864,171.831284 
	C351.193115,176.841125 350.941833,181.269699 351.065094,185.687836 
	C351.143036,188.481796 351.779724,191.260162 352.165802,194.045532 
	C352.169342,194.442764 352.172882,194.839981 352.119019,195.929199 
	C354.376831,202.086700 356.692017,207.552216 359.007202,213.017731 
	C359.007202,213.017731 359.006104,212.995514 359.012268,213.325577 
	C359.688721,214.465759 360.359009,215.275894 361.029266,216.086029 
	C361.029266,216.086029 361.087585,216.480194 361.096466,216.952042 
	C361.405487,217.610703 361.705658,217.797531 362.005798,217.984344 
	C362.005798,217.984344 362.000000,218.001099 362.077637,218.242279 
	C362.442261,218.639633 362.729309,218.795822 363.016327,218.952011 
	C363.016327,218.952011 362.996277,218.998062 363.061066,219.253204 
	C363.429016,219.644760 363.732147,219.781158 364.035309,219.917572 
	C364.035309,219.917572 364.022308,219.993607 364.106720,220.223251 
	C364.474243,220.612747 364.757324,220.772583 365.040436,220.932419 
	C365.040436,220.932419 364.999451,220.992355 365.075867,221.237091 
	C365.451447,221.634888 365.750610,221.787933 366.049774,221.940979 
	C366.230164,222.216064 366.410553,222.491150 366.868774,223.116394 
	C367.431549,223.644928 367.716461,223.823288 368.001373,224.001648 
	C368.001373,224.001633 368.000000,224.000000 368.054932,224.271790 
	C368.437897,224.623566 368.765930,224.703522 369.093933,224.783478 
	C369.093933,224.783478 369.513184,224.902176 369.855621,225.245911 
	C371.138123,226.058197 372.078217,226.526733 373.018280,226.995270 
	C373.018280,226.995270 373.002563,226.996689 373.115265,227.316681 
	C374.871613,228.343109 376.515259,229.049561 378.158905,229.756027 
	C378.158905,229.756027 378.542114,229.906235 378.899231,230.267212 
	C380.837708,231.094223 382.419128,231.560242 384.000519,232.026276 
	C384.000519,232.026276 384.003998,231.996948 384.175903,232.342880 
	C386.927582,233.011108 389.507294,233.333405 392.087036,233.655701 
	C392.804871,233.735397 393.522675,233.815079 394.822113,234.310394 
	C399.953430,234.472855 404.503113,234.219711 409.052826,233.966583 
	C409.472900,233.920624 409.893005,233.874649 411.010742,233.853180 
	C413.152924,233.556610 414.597473,233.235550 416.042023,232.914505 
	C416.450287,232.894638 416.858551,232.874786 417.950073,232.880096 
	C421.086884,231.931259 423.540405,230.957260 425.993927,229.983246 
	C425.993927,229.983246 425.999146,229.999146 426.380707,229.985138 
	C430.675446,229.633301 432.016968,227.264130 431.979279,223.610916 
	C431.902069,216.130295 431.729706,208.641815 431.989624,201.170227 
	C432.124908,197.282288 430.989197,195.844330 426.961487,195.964783 
	C418.489807,196.218140 410.002289,195.906631 401.527191,196.094070 
	C398.015656,196.171738 396.704895,194.919937 396.954224,191.457336 
	C397.180634,188.313171 397.051971,185.143448 397.079834,181.984985 
	C397.079834,181.984985 397.004974,181.998764 397.480042,182.001984 
	C419.176086,182.005219 440.397095,182.005219 461.851959,182.005219 
	C461.952789,183.663254 462.066193,184.788773 462.082703,185.915710 
	C462.220734,195.335770 462.222229,195.459869 453.093964,195.965851 
	C449.195618,196.181946 449.080261,198.703537 449.062439,201.415237 
	C449.000183,210.889114 448.709991,220.376801 449.125336,229.832047 
	C449.331940,234.535614 447.775299,237.659012 444.012146,240.027588 
	C444.012146,240.027588 444.002136,240.002563 443.679016,240.024841 
	C442.552551,240.709717 441.749237,241.372299 440.945892,242.034897 
	C440.945892,242.034897 440.503448,242.167068 440.027893,242.180878 
	C439.359741,242.467819 439.167145,242.740936 438.974518,243.014053 
	C438.974518,243.014053 438.514648,243.115524 438.028931,243.137604 
	C437.356415,243.439362 437.169617,243.719040 436.982849,243.998718 
	C436.982849,243.998718 437.003021,244.001282 436.662170,244.036194 
	C435.204071,244.719788 434.086792,245.368484 432.969543,246.017181 
	C432.969543,246.017181 432.517883,246.157974 431.903809,246.144714 
	C426.840240,247.465637 422.390686,248.799789 417.941162,250.133942 
z"/>
<path fill="#000000" opacity="1.000000" stroke="none" 
	d="
M295.330444,233.316315 
	C283.951080,245.648499 269.839966,250.591415 253.763351,251.115860 
	C241.760544,251.507401 230.191895,250.168381 219.182892,244.877350 
	C204.475906,237.809021 194.780746,226.345398 189.531006,211.199631 
	C183.203171,192.943558 183.443893,174.319626 188.922928,155.974701 
	C196.796982,129.610779 218.525421,115.419609 245.456406,114.858704 
	C258.095428,114.595459 270.304260,115.823257 281.717316,121.789078 
	C298.122253,130.364304 307.169952,144.326355 311.064392,161.944870 
	C314.415497,177.105469 314.205963,192.295059 310.120392,207.310699 
	C307.461823,217.081650 303.013489,225.939270 295.330444,233.316315 
M282.770599,144.779541 
	C281.604584,143.604706 280.522491,142.329727 279.259186,141.270950 
	C269.553925,133.136993 258.302826,130.260056 245.785507,131.042603 
	C230.679688,131.986984 219.044556,138.615509 211.821030,151.886719 
	C203.821121,166.584305 203.414719,182.551804 206.491394,198.506927 
	C208.656693,209.735825 213.254730,220.091446 223.245850,226.904617 
	C234.106445,234.310684 246.001450,236.438812 258.916504,233.881729 
	C273.390839,231.015884 283.025696,222.803802 289.231873,209.415802 
	C294.949219,197.082275 294.308594,184.230118 293.501404,171.500961 
	C292.900391,162.022446 289.418396,152.959106 282.770599,144.779541 
z"/>
<path fill="#CA6452" opacity="1.000000" stroke="none" 
	d="
M444.392700,240.034119 
	C447.775299,237.659012 449.331940,234.535614 449.125336,229.832047 
	C448.709991,220.376801 449.000183,210.889114 449.062439,201.415237 
	C449.080261,198.703537 449.195618,196.181946 453.093964,195.965851 
	C462.222229,195.459869 462.220734,195.335770 462.082703,185.915710 
	C462.066193,184.788773 461.952789,183.663254 461.851959,182.005219 
	C440.397095,182.005219 419.176086,182.005219 397.487610,182.039307 
	C398.896881,181.394302 400.766907,180.148834 402.651520,180.126389 
	C416.789307,179.958099 430.929901,180.028214 445.069641,180.030289 
	C449.847076,180.030991 454.685822,179.620361 459.369629,180.288116 
	C461.076904,180.531540 463.082458,183.133728 463.746887,185.072693 
	C464.513397,187.309479 464.013885,190.004425 463.946320,192.497192 
	C463.837006,196.529694 461.673981,198.989578 457.676666,198.469254 
	C453.316193,197.901688 453.012970,200.261078 452.915894,203.417755 
	C452.645508,212.210785 452.286530,221.001053 451.982117,229.793091 
	C451.758392,236.255081 450.134216,238.585022 444.392700,240.034119 
z"/>
<path fill="#CA6452" opacity="1.000000" stroke="none" 
	d="
M396.839294,182.326172 
	C397.051971,185.143448 397.180634,188.313171 396.954224,191.457336 
	C396.704895,194.919937 398.015656,196.171738 401.527191,196.094070 
	C410.002289,195.906631 418.489807,196.218140 426.961487,195.964783 
	C430.989197,195.844330 432.124908,197.282288 431.989624,201.170227 
	C431.729706,208.641815 431.902069,216.130295 431.979279,223.610916 
	C432.016968,227.264130 430.675446,229.633301 426.373810,229.980377 
	C429.633392,227.620361 430.296417,224.141663 430.089996,220.065903 
	C429.837799,215.085999 430.056854,210.083450 430.022644,205.091019 
	C429.979279,198.763626 429.257446,198.037720 422.738464,197.985718 
	C416.082031,197.932617 409.424652,198.002731 402.768005,197.965042 
	C396.531189,197.929749 395.942169,197.369904 395.996246,191.063416 
	C396.020264,188.263229 396.387329,185.465958 396.839294,182.326172 
z"/>
<path fill="#CA6452" opacity="1.000000" stroke="none" 
	d="
M430.090271,162.596039 
	C435.451294,162.286484 441.036743,162.286484 445.979706,162.286484 
	C445.979706,149.288147 445.979706,137.080322 445.963654,124.441101 
	C446.630524,125.724640 447.818817,127.412651 447.911835,129.158997 
	C448.403503,138.390106 448.433014,147.647552 449.008820,156.871765 
	C449.301697,161.563599 447.382690,163.854904 442.954315,163.826019 
	C438.739319,163.798508 434.527771,163.233994 430.090271,162.596039 
z"/>
<path fill="#CA6452" opacity="1.000000" stroke="none" 
	d="
M440.955109,121.418579 
	C432.102234,119.763351 423.158386,117.238152 414.039978,116.025879 
	C405.744446,114.922997 397.259277,115.246544 388.389038,114.845566 
	C389.657013,114.215134 391.377808,113.277763 393.132660,113.208946 
	C408.212067,112.617668 422.989227,114.472397 437.352631,119.205544 
	C438.575378,119.608459 439.646515,120.471405 440.955109,121.418579 
z"/>
<path fill="#CA6452" opacity="1.000000" stroke="none" 
	d="
M332.460815,167.140137 
	C332.478882,172.249786 331.853180,177.609482 332.055176,182.937820 
	C332.299988,189.396225 333.244141,195.828125 333.777924,202.682526 
	C332.506012,199.072815 330.699249,195.110657 330.326111,191.017792 
	C329.744080,184.633499 330.008667,178.156647 330.207703,171.728104 
	C330.253204,170.258514 331.493439,168.825912 332.460815,167.140137 
z"/>
<path fill="#CA6452" opacity="1.000000" stroke="none" 
	d="
M384.760010,114.743790 
	C377.948761,117.245186 370.827026,119.565025 363.326447,121.904144 
	C364.627502,120.789375 366.161713,119.157791 368.014801,118.615211 
	C373.424835,117.031174 378.962128,115.881905 384.760010,114.743790 
z"/>
<path fill="#CA6452" opacity="1.000000" stroke="none" 
	d="
M359.019073,212.626053 
	C356.692017,207.552216 354.376831,202.086700 352.171631,196.222412 
	C354.531403,201.293900 356.781189,206.764130 359.019073,212.626053 
z"/>
<path fill="#CA6452" opacity="1.000000" stroke="none" 
	d="
M378.363525,135.045181 
	C383.476074,131.307373 389.736267,130.873215 396.579651,131.157486 
	C390.948639,132.517395 384.871399,133.787415 378.363525,135.045181 
z"/>
<path fill="#CA6452" opacity="1.000000" stroke="none" 
	d="
M364.347778,144.987030 
	C368.130005,141.702972 372.267273,138.406387 376.765686,135.193176 
	C372.985474,138.509201 368.844147,141.741852 364.347778,144.987030 
z"/>
<path fill="#CA6452" opacity="1.000000" stroke="none" 
	d="
M426.761597,142.333221 
	C427.618225,148.038513 428.284241,154.089920 428.848755,160.582855 
	C428.021790,154.909393 427.296356,148.794357 426.761597,142.333221 
z"/>
<path fill="#CA6452" opacity="1.000000" stroke="none" 
	d="
M389.335327,251.436020 
	C395.369995,251.190903 401.747528,251.123352 408.587311,251.165909 
	C402.592438,251.388535 396.135315,251.501053 389.335327,251.436020 
z"/>
<path fill="#CA6452" opacity="1.000000" stroke="none" 
	d="
M414.062500,132.603027 
	C417.185791,132.700195 420.655701,132.665283 423.794556,133.667389 
	C425.187195,134.112000 425.910980,136.651794 426.846069,138.629211 
	C422.593964,136.976242 418.434204,134.934586 414.062500,132.603027 
z"/>
<path fill="#CA6452" opacity="1.000000" stroke="none" 
	d="
M337.657410,149.095612 
	C336.523132,153.863602 335.067596,158.755646 333.273193,163.838257 
	C334.401611,159.092438 335.868866,154.156052 337.657410,149.095612 
z"/>
<path fill="#CA6452" opacity="1.000000" stroke="none" 
	d="
M352.338379,193.722626 
	C351.779724,191.260162 351.143036,188.481796 351.065094,185.687836 
	C350.941833,181.269699 351.193115,176.841125 351.656494,172.180756 
	C352.188354,179.096268 352.349640,186.247986 352.338379,193.722626 
z"/>
<path fill="#CA6452" opacity="1.000000" stroke="none" 
	d="
M352.592102,168.965515 
	C353.660980,164.521835 355.015686,159.887924 356.700195,155.080200 
	C355.645996,159.529373 354.261963,164.152328 352.592102,168.965515 
z"/>
<path fill="#CA6452" opacity="1.000000" stroke="none" 
	d="
M418.064423,250.357513 
	C422.390686,248.799789 426.840240,247.465637 431.683899,246.231842 
	C427.447937,247.748505 422.817810,249.164795 418.064423,250.357513 
z"/>
<path fill="#CA6452" opacity="1.000000" stroke="none" 
	d="
M408.742676,233.770111 
	C404.503113,234.219711 399.953430,234.472855 395.182312,234.351151 
	C399.451447,233.842087 403.941956,233.707855 408.742676,233.770111 
z"/>
<path fill="#CA6452" opacity="1.000000" stroke="none" 
	d="
M374.118835,248.353821 
	C377.865021,248.805252 381.763214,249.577866 385.878174,250.683136 
	C382.153564,250.235550 378.212219,249.455276 374.118835,248.353821 
z"/>
<path fill="#CA6452" opacity="1.000000" stroke="none" 
	d="
M333.785400,205.282135 
	C335.255157,208.423279 336.577759,211.850815 337.919342,215.663300 
	C336.504974,212.554993 335.071594,209.061752 333.785400,205.282135 
z"/>
<path fill="#CA6452" opacity="1.000000" stroke="none" 
	d="
M400.333282,131.402161 
	C403.851807,131.282150 407.722260,131.331360 411.834473,131.744232 
	C408.279205,131.929062 404.482208,131.750214 400.333282,131.402161 
z"/>
<path fill="#CA6452" opacity="1.000000" stroke="none" 
	d="
M425.594940,229.963623 
	C423.540405,230.957260 421.086884,231.931259 418.250366,232.818649 
	C420.310242,231.802689 422.753082,230.873337 425.594940,229.963623 
z"/>
<path fill="#CA6452" opacity="1.000000" stroke="none" 
	d="
M344.706726,137.081421 
	C343.894653,138.905960 342.746277,140.816193 341.271545,142.826172 
	C342.086914,141.006302 343.228668,139.086685 344.706726,137.081421 
z"/>
<path fill="#CA6452" opacity="1.000000" stroke="none" 
	d="
M350.616119,130.989502 
	C349.521332,132.588669 348.062164,134.195938 346.293152,135.919983 
	C347.406128,134.357025 348.828918,132.677307 350.616119,130.989502 
z"/>
<path fill="#CA6452" opacity="1.000000" stroke="none" 
	d="
M391.824158,233.395935 
	C389.507294,233.333405 386.927582,233.011108 384.161560,232.345795 
	C386.503906,232.380569 389.032593,232.758362 391.824158,233.395935 
z"/>
<path fill="#CA6452" opacity="1.000000" stroke="none" 
	d="
M360.364380,149.956879 
	C361.137695,148.423141 362.252319,146.821869 363.683228,145.106766 
	C362.901581,146.625076 361.803589,148.257202 360.364380,149.956879 
z"/>
<path fill="#CA6452" opacity="1.000000" stroke="none" 
	d="
M415.777649,232.735596 
	C414.597473,233.235550 413.152924,233.556610 411.318665,233.778442 
	C412.457031,233.305023 413.985168,232.930847 415.777649,232.735596 
z"/>
<path fill="#CA6452" opacity="1.000000" stroke="none" 
	d="
M349.996460,233.381317 
	C351.250610,234.156006 352.512268,235.290100 353.863495,236.734222 
	C352.636688,235.943069 351.320312,234.841888 349.996460,233.381317 
z"/>
<path fill="#CA6452" opacity="1.000000" stroke="none" 
	d="
M378.006470,229.452881 
	C376.515259,229.049561 374.871613,228.343109 373.115906,227.308319 
	C374.620544,227.703247 376.237305,228.426498 378.006470,229.452881 
z"/>
<path fill="#CA6452" opacity="1.000000" stroke="none" 
	d="
M412.203491,251.250061 
	C413.104828,250.753372 414.265991,250.432526 415.802704,250.227798 
	C414.939941,250.704575 413.701660,251.065247 412.203491,251.250061 
z"/>
<path fill="#CA6452" opacity="1.000000" stroke="none" 
	d="
M383.854553,231.699249 
	C382.419128,231.560242 380.837708,231.094223 379.102386,230.300064 
	C380.535156,230.438705 382.121887,230.905472 383.854553,231.699249 
z"/>
<path fill="#CA6452" opacity="1.000000" stroke="none" 
	d="
M341.991486,224.369247 
	C342.958160,225.130035 343.941010,226.240311 344.965698,227.681259 
	C344.007599,226.914200 343.007629,225.816467 341.991486,224.369247 
z"/>
<path fill="#CA6452" opacity="1.000000" stroke="none" 
	d="
M365.116058,244.335114 
	C366.237946,244.484909 367.483398,244.954803 368.849335,245.745789 
	C367.726440,245.596298 366.483002,245.125748 365.116058,244.335114 
z"/>
<path fill="#CA6452" opacity="1.000000" stroke="none" 
	d="
M433.329285,246.017807 
	C434.086792,245.368484 435.204071,244.719788 436.660370,244.025726 
	C435.895966,244.659714 434.792511,245.339081 433.329285,246.017807 
z"/>
<path fill="#CA6452" opacity="1.000000" stroke="none" 
	d="
M445.863770,123.728653 
	C444.746826,123.567307 443.507996,123.080299 442.119324,122.286377 
	C443.226959,122.453979 444.484406,122.928490 445.863770,123.728653 
z"/>
<path fill="#CA6452" opacity="1.000000" stroke="none" 
	d="
M339.623596,145.094696 
	C339.495819,146.219940 339.051392,147.475327 338.287567,148.856689 
	C338.414429,147.730042 338.860687,146.477432 339.623596,145.094696 
z"/>
<path fill="#CA6452" opacity="1.000000" stroke="none" 
	d="
M361.127258,242.304855 
	C362.239532,242.452728 363.482574,242.919022 364.856567,243.697617 
	C363.744354,243.547699 362.501221,243.085495 361.127258,242.304855 
z"/>
<path fill="#CA6452" opacity="1.000000" stroke="none" 
	d="
M372.909912,226.679047 
	C372.078217,226.526733 371.138123,226.058197 370.069946,225.285004 
	C370.895081,225.441177 371.848328,225.901993 372.909912,226.679047 
z"/>
<path fill="#CA6452" opacity="1.000000" stroke="none" 
	d="
M361.014130,215.744064 
	C360.359009,215.275894 359.688721,214.465759 359.001556,213.322723 
	C359.656128,213.793915 360.327576,214.598007 361.014130,215.744064 
z"/>
<path fill="#CA6452" opacity="1.000000" stroke="none" 
	d="
M358.330170,152.912994 
	C358.478638,152.083572 358.936096,151.146729 359.710236,150.115204 
	C359.564362,150.948868 359.101746,151.877228 358.330170,152.912994 
z"/>
<path fill="#CA6452" opacity="1.000000" stroke="none" 
	d="
M355.086823,238.322159 
	C355.914581,238.472824 356.848663,238.934097 357.882629,239.706573 
	C357.052734,239.556122 356.122925,239.094437 355.086823,238.322159 
z"/>
<path fill="#CA6452" opacity="1.000000" stroke="none" 
	d="
M441.284241,242.013931 
	C441.749237,241.372299 442.552551,240.709717 443.690735,240.031586 
	C443.224579,240.675034 442.423584,241.334000 441.284241,242.013931 
z"/>
<path fill="#CA6452" opacity="1.000000" stroke="none" 
	d="
M340.488464,144.066833 
	C340.594879,144.242371 340.526978,144.537521 340.212006,144.885681 
	C339.987183,144.644257 340.103577,144.393509 340.488464,144.066833 
z"/>
<path fill="#CA6452" opacity="1.000000" stroke="none" 
	d="
M352.759644,129.083618 
	C352.811951,129.267441 352.645294,129.556107 352.225647,129.901642 
	C352.074860,129.637558 352.264191,129.380875 352.759644,129.083618 
z"/>
<path fill="#CA6452" opacity="1.000000" stroke="none" 
	d="
M351.745728,130.086044 
	C351.806091,130.271667 351.653259,130.569565 351.243347,130.922119 
	C351.084564,130.658508 351.266663,130.399017 351.745728,130.086044 
z"/>
<path fill="#CA6452" opacity="1.000000" stroke="none" 
	d="
M358.112854,240.239716 
	C358.287323,240.183884 358.586914,240.346329 358.976807,240.759460 
	C358.790741,240.826111 358.514343,240.642044 358.112854,240.239716 
z"/>
<path fill="#CA6452" opacity="1.000000" stroke="none" 
	d="
M353.754486,128.072479 
	C353.809692,128.253586 353.647278,128.548782 353.231750,128.911407 
	C353.079590,128.654770 353.265686,128.390686 353.754486,128.072479 
z"/>
<path fill="#CA6452" opacity="1.000000" stroke="none" 
	d="
M356.777374,126.045959 
	C356.809753,126.257141 356.633881,126.531738 356.204590,126.758728 
	C356.097412,126.449158 356.303375,126.248573 356.777374,126.045959 
z"/>
<path fill="#CA6452" opacity="1.000000" stroke="none" 
	d="
M357.805420,125.100021 
	C357.849945,125.280479 357.672028,125.571632 357.237732,125.924889 
	C357.103790,125.667702 357.304321,125.408936 357.805420,125.100021 
z"/>
<path fill="#CA6452" opacity="1.000000" stroke="none" 
	d="
M359.766052,124.029755 
	C359.805725,124.250465 359.630096,124.536179 359.191589,124.776955 
	C359.071381,124.456520 359.278748,124.244102 359.766052,124.029755 
z"/>
<path fill="#CA6452" opacity="1.000000" stroke="none" 
	d="
M361.716309,123.021286 
	C361.761230,123.235535 361.605499,123.519890 361.193298,123.753830 
	C361.067566,123.440552 361.260529,123.236542 361.716309,123.021286 
z"/>
<path fill="#CA6452" opacity="1.000000" stroke="none" 
	d="
M362.708252,122.059937 
	C362.767548,122.248383 362.615631,122.541481 362.206665,122.875381 
	C362.047668,122.604172 362.230133,122.353645 362.708252,122.059937 
z"/>
<path fill="#CA6452" opacity="1.000000" stroke="none" 
	d="
M367.910950,223.774200 
	C367.716461,223.823288 367.431549,223.644928 367.103455,223.208450 
	C367.380829,223.063568 367.634247,223.262360 367.910950,223.774200 
z"/>
<path fill="#CA6452" opacity="1.000000" stroke="none" 
	d="
M357.429047,153.989319 
	C357.336121,153.817169 357.419128,153.493378 357.761108,153.095184 
	C357.962372,153.334045 357.824005,153.606354 357.429047,153.989319 
z"/>
<path fill="#CA6452" opacity="1.000000" stroke="none" 
	d="
M338.024841,216.272659 
	C338.239685,216.231689 338.521606,216.398178 338.757935,216.823883 
	C338.445160,216.944244 338.238342,216.743256 338.024841,216.272659 
z"/>
<path fill="#CA6452" opacity="1.000000" stroke="none" 
	d="
M361.913391,217.771301 
	C361.705658,217.797531 361.405487,217.610703 361.156128,217.142120 
	C361.447449,217.061478 361.652130,217.294113 361.913391,217.771301 
z"/>
<path fill="#CA6452" opacity="1.000000" stroke="none" 
	d="
M339.023132,218.234009 
	C339.240875,218.201569 339.512390,218.381561 339.731689,218.814392 
	C339.407623,218.929230 339.206726,218.722290 339.023132,218.234009 
z"/>
<path fill="#CA6452" opacity="1.000000" stroke="none" 
	d="
M362.912292,218.734375 
	C362.729309,218.795822 362.442261,218.639633 362.086212,218.238159 
	C362.345398,218.070038 362.609100,218.244675 362.912292,218.734375 
z"/>
<path fill="#CA6452" opacity="1.000000" stroke="none" 
	d="
M363.924805,219.710159 
	C363.732147,219.781158 363.429016,219.644760 363.085266,219.246796 
	C363.357452,219.074097 363.614014,219.246597 363.924805,219.710159 
z"/>
<path fill="#CA6452" opacity="1.000000" stroke="none" 
	d="
M340.022888,220.239075 
	C340.244812,220.201080 340.524292,220.371918 340.745117,220.796509 
	C340.416321,220.918060 340.214294,220.717270 340.022888,220.239075 
z"/>
<path fill="#CA6452" opacity="1.000000" stroke="none" 
	d="
M364.946991,220.713333 
	C364.757324,220.772583 364.474243,220.612747 364.140442,220.204529 
	C364.414673,220.035706 364.669250,220.215073 364.946991,220.713333 
z"/>
<path fill="#CA6452" opacity="1.000000" stroke="none" 
	d="
M365.940125,221.727966 
	C365.750610,221.787933 365.451447,221.634888 365.108398,221.221481 
	C365.378571,221.064499 365.633881,221.249100 365.940125,221.727966 
z"/>
<path fill="#CA6452" opacity="1.000000" stroke="none" 
	d="
M341.032166,222.263519 
	C341.350037,222.041290 341.619080,222.201035 341.730286,222.787689 
	C341.420105,222.908691 341.223755,222.718979 341.032166,222.263519 
z"/>
<path fill="#CA6452" opacity="1.000000" stroke="none" 
	d="
M373.068665,247.467529 
	C373.240814,247.371063 373.543030,247.448975 373.904419,247.777893 
	C373.666321,247.983551 373.411377,247.854538 373.068665,247.467529 
z"/>
<path fill="#CA6452" opacity="1.000000" stroke="none" 
	d="
M368.940125,224.613968 
	C368.765930,224.703522 368.437897,224.623566 368.054382,224.270920 
	C368.302032,224.075241 368.564484,224.223969 368.940125,224.613968 
z"/>
<path fill="#CA6452" opacity="1.000000" stroke="none" 
	d="
M345.095215,228.217026 
	C345.280792,228.168823 345.573273,228.344360 345.921814,228.779388 
	C345.654816,228.923187 345.396179,228.723816 345.095215,228.217026 
z"/>
<path fill="#CA6452" opacity="1.000000" stroke="none" 
	d="
M347.078857,230.209839 
	C347.265411,230.155380 347.558289,230.324997 347.915466,230.748138 
	C347.650787,230.902176 347.385925,230.712921 347.078857,230.209839 
z"/>
<path fill="#CA6452" opacity="1.000000" stroke="none" 
	d="
M348.099487,231.238739 
	C348.284546,231.182053 348.571106,231.343994 348.917236,231.755157 
	C348.654205,231.912811 348.395569,231.730469 348.099487,231.238739 
z"/>
<path fill="#CA6452" opacity="1.000000" stroke="none" 
	d="
M349.096893,232.241821 
	C349.281219,232.185272 349.566986,232.347198 349.913666,232.757324 
	C349.651794,232.914932 349.393036,232.733185 349.096893,232.241821 
z"/>
<path fill="#CA6452" opacity="1.000000" stroke="none" 
	d="
M354.079712,237.271393 
	C354.261444,237.210251 354.555084,237.363998 354.917969,237.767654 
	C354.664337,237.926834 354.399139,237.749741 354.079712,237.271393 
z"/>
<path fill="#CA6452" opacity="1.000000" stroke="none" 
	d="
M360.046082,241.417831 
	C360.214966,241.325104 360.535889,241.406677 360.934906,241.745789 
	C360.700897,241.946548 360.429260,241.809479 360.046082,241.417831 
z"/>
<path fill="#CA6452" opacity="1.000000" stroke="none" 
	d="
M439.191711,242.960175 
	C439.167145,242.740936 439.359741,242.467819 439.808868,242.253876 
	C439.909973,242.580978 439.691132,242.778732 439.191711,242.960175 
z"/>
<path fill="#CA6452" opacity="1.000000" stroke="none" 
	d="
M437.195312,243.928131 
	C437.169617,243.719040 437.356415,243.439362 437.804565,243.209045 
	C437.897369,243.513992 437.677979,243.713699 437.195312,243.928131 
z"/>
<path fill="#CA6452" opacity="1.000000" stroke="none" 
	d="
M370.076569,246.509888 
	C370.242798,246.398727 370.549744,246.460922 370.944489,246.769073 
	C370.722626,246.997818 370.450928,246.887222 370.076569,246.509888 
z"/>
<path fill="#000000" opacity="1.000000" stroke="none" 
	d="
M215.786102,303.785156 
	C216.418762,301.584778 217.002914,299.788239 218.073730,296.494904 
	C222.400421,309.413086 226.268707,320.962616 230.257935,332.873169 
	C222.320007,332.873169 214.887985,332.873169 205.831787,332.873169 
	C209.267349,322.924866 212.502472,313.556915 215.786102,303.785156 
z"/>
<path fill="#D9654E" opacity="1.000000" stroke="none" 
	d="
M352.490784,364.496246 
	C352.508392,364.490845 352.473206,364.501648 352.490784,364.496246 
z"/>
<path fill="#FA6348" opacity="1.000000" stroke="none" 
	d="
M137.149246,146.937042 
	C145.253326,158.230133 147.965805,170.873810 147.717651,184.008362 
	C147.438187,198.799698 143.331467,212.646103 132.638885,223.475769 
	C126.641495,229.550064 118.739632,232.995804 110.263390,233.701172 
	C99.378540,234.606995 88.409622,234.467911 77.483582,234.934753 
	C74.270012,235.072052 73.029350,234.007111 73.037064,230.698776 
	C73.111275,198.873947 73.084641,167.048874 73.056503,135.223877 
	C73.054352,132.786606 73.373322,130.899948 76.514023,131.074127 
	C89.039383,131.768738 101.593620,132.102020 114.087112,133.160110 
	C123.660721,133.970917 130.747253,139.712845 137.149246,146.937042 
z"/>
<path fill="#F96348" opacity="1.000000" stroke="none" 
	d="
M282.858826,145.132294 
	C289.418396,152.959106 292.900391,162.022446 293.501404,171.500961 
	C294.308594,184.230118 294.949219,197.082275 289.231873,209.415802 
	C283.025696,222.803802 273.390839,231.015884 258.916504,233.881729 
	C246.001450,236.438812 234.106445,234.310684 223.245850,226.904617 
	C213.254730,220.091446 208.656693,209.735825 206.491394,198.506927 
	C203.414719,182.551804 203.821121,166.584305 211.821030,151.886719 
	C219.044556,138.615509 230.679688,131.986984 245.785507,131.042603 
	C258.302826,130.260056 269.553925,133.136993 279.259186,141.270950 
	C280.522491,142.329727 281.604584,143.604706 282.858826,145.132294 
z"/>
</svg>